<?xml version="1.0" encoding="UTF-8"?>
<svg id="Camada_1" data-name="Camada 1" xmlns="http://www.w3.org/2000/svg" viewBox="0 0 1080 1080">
  <defs>
    <style>
      .cls-1 {
        fill: #fff;
      }
    </style>
  </defs>
  <rect y="0" width="1080" height="1080"/>
  <path class="cls-1" d="M741.3,517.16c40.66-62.96,77.62-137.22,93.19-210.5,8.71-40.99,13.07-89.42-5.09-127.07-16.77-34.76-54.2-51.87-91.19-40.59-16.22,4.94-30.64,12.95-44.31,23.27-34.08,25.73-64.49,63.36-88.71,98.95-33.89,49.81-62.12,102.9-86.29,158.24-27.75,64.48-50.05,130.71-66.85,198.8-6.34,25.7-10.98,50.92-14.82,76.86-73,7.08-151.53,38.26-202.64,90.61-19.12,19.58-39.28,50.25-29.3,76.71,9.54,25.29,40.59,30.83,66.53,30.19,56.52-1.4,118.65-31.33,166.94-60.59,8.91,36.58,26.65,68.67,58.46,87.44,60.77,32.79,128.95,2.99,177.7-39.55,21.27-18.56,39.1-39.49,55.22-62.63,8.55-12.28,19.63-30.48,26.85-47.83,1.2-2.89.38-6.22-2.06-8.17l-41.56-33.38c-5.58-4.48-13.92-2.99-17.42,3.25-.05.1-.11.19-.16.29-14.89,27.18-31.8,52.19-55.6,72.22-10.6,8.92-21.44,16.49-34.14,21.98-23.75,10.28-50.73,11.75-64.44-11.64-8.11-13.84-10.98-29.83-10.93-45.91l47.14-46.27c60.91-62.99,115.87-130.92,163.49-204.66ZM407.98,764.05c-21.06,26.77-47.8,48.36-78.4,63.5-13.96,6.9-36.64,15.18-50.28,10.73-5.13-1.67-7.39-6.5-6.28-11.31,3.48-15.19,23.03-31.29,37.1-40.16,21.53-13.56,44.86-23.17,69.76-28.68,9.48-2.1,26.27-4.17,28.96-.01.76,1.17.26,4.52-.85,5.94ZM579.11,536.61c22.9-62.68,49.43-123.35,80.46-182.34,14.82-28.17,30.42-55.1,48.47-81.11,10.64-15.33,30.23-41.77,45.49-47.22,5.24-1.87,9.88,1.53,11.03,6.7,1.58,7.11,1.61,14.41.38,21.88-2.46,14.91-5.96,29.06-10.83,43.48-19.93,59.09-57.62,128.89-90.34,183.72-35.59,59.63-75.02,115.51-119.55,168.66,9.36-39.26,21.71-76.31,34.89-113.76Z"/>
  <path class="cls-1" d="M793.74,763.2c-5.22-56.22-31.54-90.42-90.51-98.05,56.16-5.53,85.67-41.13,90.59-97.33,4.64,56.42,33.25,91.37,90.89,97.43-40.44,4.76-69.43,22.54-83.29,60.71-4.61,11.74-5.87,23.57-7.68,37.25Z"/>
</svg>