<?xml version="1.0" encoding="UTF-8"?>
<svg id="Camada_1" data-name="Camada 1" xmlns="http://www.w3.org/2000/svg" viewBox="0 0 2220 1080">
  <defs>
    <style>
      .cls-1 {
        fill: #fff;
      }
    </style>
  </defs>
  <path class="cls-1" d="M1228.62,901.01v-319.1h108.86v60.66h3.33c6.65-19.94,18-35.73,34.07-47.37,16.07-11.63,35.18-17.45,57.34-17.45s41.76,5.92,57.96,17.76c16.2,11.84,25.97,27.53,29.29,47.05h3.32c5.4-19.53,16.9-35.21,34.49-47.05,17.59-11.84,38.23-17.76,61.91-17.76,30.61,0,55.43,9.84,74.48,29.5,19.04,19.67,28.57,45.84,28.57,78.53v215.23h-114.68v-186.14c0-13.99-3.53-24.96-10.6-32.93-7.06-7.96-16.55-11.94-28.46-11.94s-21.09,3.98-27.94,11.94c-6.85,7.97-10.28,18.94-10.28,32.93v186.14h-109.69v-186.14c0-13.99-3.53-24.96-10.6-32.93-7.06-7.96-16.55-11.94-28.46-11.94-7.89,0-14.68,1.8-20.36,5.4-5.68,3.6-10.08,8.76-13.19,15.48-3.12,6.72-4.67,14.72-4.67,23.99v186.14h-114.68Z"/>
  <path class="cls-1" d="M1759.42,901.01v-319.1h114.68v319.1h-114.68Z"/>
  <path class="cls-1" d="M880.8,805.19c-2.79,5.17-5.71,10.19-8.61,14.89-.76-3.2-1.41-6.46-1.95-9.79l-.16-17.05,10.72,11.95Z"/>
  <path class="cls-1" d="M870.08,793.24l.16,17.05c.54,3.33,1.19,6.59,1.95,9.79,2.9-4.7,5.82-9.72,8.61-14.89l-10.72-11.95Z"/>
  <path class="cls-1" d="M1075.09,581.91v179.48c.12,10.52-1.69,19.59-5.49,27.13-3.81,7.54-9.23,13.35-16.22,17.43-6.99,4.09-15.27,6.13-24.82,6.13-14.41,0-25.6-4.48-33.57-13.51-7.97-8.99-12.01-21.36-12.13-37.18v-179.48h-114.69c-1.56,26.71-5.87,59.63-16.25,96.12-7.33,25.79-16.23,48.21-25.04,67.03-.09.16-.15.27-.16.3-15.53,28.34-33.17,54.42-57.98,75.3-11.05,9.31-22.35,17.2-35.59,22.93-24.76,10.71-52.89,12.25-67.19-12.14-8.46-14.43-11.45-31.1-11.4-47.88l49.15-48.24c63.51-65.68,120.82-136.51,170.47-213.4,42.4-65.65,80.94-143.08,97.17-219.49,9.08-42.74,13.63-93.24-5.31-132.5-17.48-36.24-56.51-54.08-95.08-42.32-16.92,5.15-31.95,13.5-46.21,24.26-35.54,26.82-67.25,66.07-92.5,103.18-35.34,51.93-64.78,107.29-89.98,164.99-28.93,67.24-52.19,136.3-69.7,207.3-6.61,26.8-11.45,53.1-15.46,80.14-76.12,7.39-158,39.9-211.29,94.48-19.94,20.41-40.96,52.4-30.56,79.98,9.95,26.37,42.33,32.15,69.38,31.48,58.93-1.46,123.72-32.67,174.07-63.18,9.29,38.14,27.78,71.6,60.95,91.18,63.37,34.19,134.46,3.12,185.29-41.25,22.18-19.35,40.77-41.18,57.58-65.31,3.01-4.32,6.32-9.34,9.66-14.79-.76-3.2-1.41-6.46-1.95-9.79l-.16-17.05,10.72,11.95c-2.79,5.17-5.71,10.19-8.61,14.89,2.32,9.69,5.64,18.8,9.99,27.34,9.23,17.98,22.19,32.12,38.88,42.36,16.68,10.25,36.16,15.4,58.46,15.4,23.84,0,44.37-5.74,61.69-17.16,17.31-11.43,29.45-27.33,36.36-47.67h3.33v60.66h108.85v-319.1h-114.66ZM705.07,542.21c23.88-65.36,51.54-128.62,83.9-190.13,15.45-29.37,31.71-57.45,50.54-84.58,11.09-15.98,31.53-43.55,47.43-49.23,5.47-1.95,10.3,1.59,11.5,6.98,1.66,7.41,1.68,15.02.4,22.81-2.56,15.55-6.22,30.3-11.29,45.33-20.78,61.61-60.09,134.4-94.21,191.57-37.1,62.18-78.21,120.45-124.65,175.87,9.76-40.94,22.63-79.58,36.38-118.62ZM526.62,779.36c-21.95,27.92-49.83,50.42-81.74,66.21-14.56,7.2-38.21,15.83-52.44,11.19-5.34-1.75-7.7-6.78-6.55-11.8,3.63-15.84,24.02-32.63,38.69-41.87,22.44-14.14,46.77-24.16,72.73-29.91,9.89-2.18,27.4-4.35,30.2-.01.79,1.22.27,4.72-.89,6.19Z"/>
  <path class="cls-1" d="M1816.53,556.35c-5.22-56.22-31.54-90.42-90.51-98.05,56.16-5.53,85.67-41.13,90.59-97.33,4.64,56.42,33.25,91.37,90.89,97.43-40.44,4.76-69.43,22.54-83.29,60.71-4.61,11.74-5.87,23.57-7.68,37.25Z"/>
</svg>